<svg xmlns="http://www.w3.org/2000/svg" width="254.998" height="30.365" viewBox="0 0 254.998 30.365">
    <text data-name="Lotte fine chemical 60 Years" transform="translate(42.998 21)" style="fill:#d4ccc2;font-size:16px;font-family:IBMPlexSansKR-Bold,IBM Plex Sans KR;font-weight:700"><tspan x="0" y="0">Lotte fine chemical 60 Years</tspan></text>
    <g data-name="그룹 325">
        <g data-name="그룹 421">
            <g data-name="그룹 326">
                <g data-name="그룹 422">
                    <path data-name="제외 3" d="M21499.014 17153.5a9.93 9.93 0 0 1-7.07-2.932l-4.871-4.865a10 10 0 0 1 0-14.143l5.492-5.5a10 10 0 0 1 14.141 0l4.871 4.875a10 10 0 0 1 0 14.143l-5.492 5.486a9.93 9.93 0 0 1-7.071 2.936zm5.67-26.3a2.726 2.726 0 0 1 .525.477 2.394 2.394 0 0 1 .34.611 2.25 2.25 0 0 1 .137.68c0 .105 0 .227-.012.346l-.016.367-.027 1.436v.121c-.012.4-.023.85-.023 1.326l-.008.531c-.023 1.713-.047 3.484-.047 5.23s.023 3.514.047 5.225l.008.531c0 .383.008.826.027 1.438l.027 1.447.016.355c.012.113.012.24.012.352a2.3 2.3 0 0 1-.137.68 2.244 2.244 0 0 1-.869 1.092 2.251 2.251 0 0 0 .568-.443 1.905 1.905 0 0 0 .41-.605 2.372 2.372 0 0 0 .2-.707c0-.068 0-.133.006-.2v-.526l.043-1.447c0-.205.008-.41.01-.617v-.018c0-.264.008-.537.016-.8.027-1.855.039-3.791.039-5.756.016-1.8-.01-3.631-.033-5.4l-.006-.361c-.008-.273-.012-.549-.016-.814v-.014c0-.205-.006-.412-.01-.619l-.043-1.436v-.542c0-.062-.006-.125-.006-.191a2.375 2.375 0 0 0-.2-.713 1.861 1.861 0 0 0-.41-.6 2.189 2.189 0 0 0-.568-.431zm-10.363 11.045a2.223 2.223 0 0 1 .846 1.145 2.125 2.125 0 0 1 .1.7l-.027.746-.008.291c-.023.893-.047 1.814-.047 2.705 0 .969.01 1.953.039 3.008l.016.75a1.92 1.92 0 0 1-.1.691 2.3 2.3 0 0 1-.836 1.162 2.452 2.452 0 0 0 .334-.184 1.907 1.907 0 0 0 .287-.25 2.193 2.193 0 0 0 .441-.646 2.121 2.121 0 0 0 .2-.773v-.184l.016-.2.012-.367.008-.48a114.548 114.548 0 0 0-.02-5.527l-.016-.379-.012-.184v-.1a.8.8 0 0 0 0-.1 2.291 2.291 0 0 0-.184-.768 2.09 2.09 0 0 0-1.05-1.051zm-.02-11.078a2.236 2.236 0 0 0-.582.436 2.305 2.305 0 0 0-.41.6 2.331 2.331 0 0 0-.184.723c0 .059-.006.111-.008.166v.053c0 .047-.006.1-.01.148l-.012.355-.031 1.443c0 .125-.006.25-.008.375l-.008.373-.018.7c-.029 1.879-.043 3.764-.043 5.76s.014 3.9.043 5.773l.018.721c0 .123 0 .244.008.367s0 .238.008.359l.031 1.436.012.367c.006.049.008.1.01.15v.055c0 .053 0 .107.008.162a2.152 2.152 0 0 0 .594 1.313 2.123 2.123 0 0 0 .584.443 2.485 2.485 0 0 1-.529-.486 1.994 1.994 0 0 1-.346-.605 2.088 2.088 0 0 1-.129-.68 1.482 1.482 0 0 1 0-.209V17147.323l.01-.367.033-1.436c.012-.273.018-.551.021-.82v-.174c0-.152 0-.3.008-.453.039-2.256.055-4.09.055-5.773 0-1.668-.016-3.5-.055-5.76-.006-.221-.008-.443-.01-.658v-.27c0-.172-.006-.348-.01-.52l-.043-1.443-.01-.355v-.121a1.852 1.852 0 0 1 0-.234 2.059 2.059 0 0 1 .129-.682 1.874 1.874 0 0 1 .346-.609 2.425 2.425 0 0 1 .527-.476zm10.379.029a2.082 2.082 0 0 0-.582.438 2.113 2.113 0 0 0-.594 1.313c0 .045-.008.088-.01.131v.07c0 .057-.006.113-.01.166v.367l-.043 1.436c0 .17-.006.34-.008.51v.143c0 .26-.01.529-.021.795l-.008.7c-.018 1.658-.035 3.373-.035 5.063s.018 3.4.035 5.059l.008.7c.012.262.018.531.021.791v.139c0 .17 0 .34.008.508l.043 1.447.01.355c0 .111 0 .238.012.367a2.152 2.152 0 0 0 .594 1.313 2.272 2.272 0 0 0 .572.432 2.26 2.26 0 0 1-.523-.475 2.047 2.047 0 0 1-.34-.605 2.118 2.118 0 0 1-.131-.68c-.008-.076 0-.162 0-.236v-.115l.012-.355.043-1.447c0-.215.006-.434.008-.65v-.2c0-.191.006-.391.01-.584.039-2.363.055-4.139.055-5.756s-.016-3.395-.055-5.762c0-.2-.008-.395-.01-.586v-.2c0-.221 0-.439-.008-.658l-.043-1.436-.012-.367v-.119a1.734 1.734 0 0 1 0-.227 2.062 2.062 0 0 1 .131-.68 1.953 1.953 0 0 1 .34-.611 2.293 2.293 0 0 1 .533-.479zm.766.445a2.2 2.2 0 0 1 .838 1.023 2.278 2.278 0 0 1 .152.66v.334l-.012.346-.043 1.393c-.006.279-.008.566-.01.846v.532a281.1 281.1 0 0 0 0 11.08v.54c0 .281 0 .57.01.854l.043 1.383.012.346v.346a2.276 2.276 0 0 1-.152.648 2.129 2.129 0 0 1-.852 1.031 2.386 2.386 0 0 0 .566-.41 2.137 2.137 0 0 0 .395-.578 2.164 2.164 0 0 0 .205-.68.384.384 0 0 0 .008-.084v-.025a.453.453 0 0 1 .012-.074v-.174l.021-.346.037-1.383v-.46c.006-.271.012-.609.012-.932.037-2.176.053-3.932.053-5.529s-.016-3.373-.053-5.551c0-.322-.006-.656-.012-.924v-.462l-.037-1.383-.021-.346v-.172a.582.582 0 0 1-.01-.076v-.031c0-.023 0-.049-.008-.076a2.2 2.2 0 0 0-.205-.682 2.27 2.27 0 0 0-.395-.578 2.154 2.154 0 0 0-.555-.401zm-10.369 10.156a2.341 2.341 0 0 1 .852 1.148 2.39 2.39 0 0 1 .1.7l-.027.744a82.636 82.636 0 0 0-.055 3c0 1.1.016 2.189.025 2.984v.023l.027.746a2.118 2.118 0 0 1-.1.686 2.277 2.277 0 0 1-.848 1.166 1.978 1.978 0 0 0 .34-.184 1.846 1.846 0 0 0 .3-.248 2.5 2.5 0 0 0 .438-.637 2.59 2.59 0 0 0 .189-.779v-.092l.01-.1v-.184l.012-.379a90.846 90.846 0 0 0-.012-6.008l-.01-.367-.006-.193v-.184a2.3 2.3 0 0 0-.2-.768 2.039 2.039 0 0 0-1.036-1.071zm8.832-10.156a2.2 2.2 0 0 0-.545.4 2.5 2.5 0 0 0-.41.578 2.145 2.145 0 0 0-.2.682V17129.352a.711.711 0 0 0-.014.133 1.027 1.027 0 0 1-.01.172l-.012.346-.033 1.383v.373a42.27 42.27 0 0 0-.014 1.014c-.037 2.178-.053 3.941-.053 5.551s.016 3.354.053 5.529c0 .188.008.379.01.564v.2c0 .211 0 .422.008.633l.033 1.383.012.346a1.1 1.1 0 0 1 .01.174.955.955 0 0 0 .018.16v.023a2.062 2.062 0 0 0 .2.68 2.327 2.327 0 0 0 .41.578 2.365 2.365 0 0 0 .561.41 2.153 2.153 0 0 1-.852-1.031 2.276 2.276 0 0 1-.152-.648v-.346l.012-.346.043-1.383c0-.209.006-.42.008-.629v-.2c0-.186.006-.377.01-.566.025-1.5.055-3.488.043-5.529.012-2.057-.018-4.047-.043-5.551 0-.186-.008-.375-.01-.557v-.193c0-.211 0-.42-.008-.627l-.043-1.393-.012-.346v-.334a2.278 2.278 0 0 1 .152-.66 2.22 2.22 0 0 1 .827-1.019zm-10.375-.031a1.935 1.935 0 0 0-.549.408 2 2 0 0 0-.41.576 2.1 2.1 0 0 0-.205.686.858.858 0 0 0-.012.174 1.086 1.086 0 0 0-.01.172l-.012.357-.031 1.377c0 .229-.01.457-.016.686l-.006.236c0 .158-.008.316-.012.477-.037 2.111-.053 3.924-.053 5.539s.016 3.367.053 5.557l.018.689c0 .117 0 .232.008.35s0 .229.008.344l.031 1.393.012.346a.982.982 0 0 0 .01.174 1.03 1.03 0 0 0 .012.184 2.164 2.164 0 0 0 .205.68 2.133 2.133 0 0 0 .41.578 2.384 2.384 0 0 0 .563.41 2.279 2.279 0 0 1-.865-1.031 2.142 2.142 0 0 1-.141-.664.861.861 0 0 1-.01-.156v-.123a.477.477 0 0 0 0-.051l.012-.346.033-1.393c0-.25.01-.5.016-.75 0-.1.006-.207.008-.311l.008-.322v-.049l.008-.666c.018-1.586.035-3.227.035-4.842s-.018-3.279-.035-4.875l-.008-.664c-.006-.227-.012-.453-.016-.68v-.018c-.006-.234-.012-.467-.016-.7l-.033-1.377-.012-.357a.512.512 0 0 0 0-.053v-.109a.948.948 0 0 1 .01-.172 1.956 1.956 0 0 1 .141-.648 2.383 2.383 0 0 1 .85-1.031zm12.668.469a2.3 2.3 0 0 1 .482.43l.035.047.016.021.006.006a1.919 1.919 0 0 1 .139.2l.016.027.006.012.006.01a.6.6 0 0 1 .047.086c.008.018.016.031.021.047l.006.012a.391.391 0 0 1 .037.094 1.946 1.946 0 0 1 .162.615.756.756 0 0 1 .012.162v.162l-.012.334-.031 1.328c-.012.234-.018.473-.021.7v.154c0 .152 0 .309-.01.467-.029 1.744-.043 3.488-.043 5.334s.014 3.582.043 5.314c.006.156.008.314.01.469v.152c0 .232.01.471.021.707l.031 1.338.012.336v.156a.7.7 0 0 1-.012.156 2.039 2.039 0 0 1-.162.621.3.3 0 0 1-.041.1.2.2 0 0 0-.014.029l-.006.008a.305.305 0 0 1-.021.051l-.016.027a.964.964 0 0 0-.037.078c-.037.051-.076.1-.115.148s-.055.07-.08.105a2.443 2.443 0 0 1-.5.443 2.161 2.161 0 0 0 .939-.939 2.306 2.306 0 0 0 .227-.648.8.8 0 0 1 .021-.168v-.123a.408.408 0 0 0 0-.049l.012-.336.033-1.338v-.037l.012-.574.008-.287.01-.43c.029-1.564.043-3.254.043-5.314s-.014-3.762-.043-5.334c-.006-.221-.012-.441-.016-.66s-.012-.441-.016-.664l-.033-1.328-.012-.334v-.174a.982.982 0 0 1-.021-.172 2.217 2.217 0 0 0-.227-.648 2.046 2.046 0 0 0-.926-.924zm-10.361 9.291a2.189 2.189 0 0 1 .844 1.145 2.255 2.255 0 0 1 .1.7l-.021.746a85.457 85.457 0 0 0-.055 3c-.012 1.02 0 2 .033 3l.021.752a2.554 2.554 0 0 1-.1.7 2.329 2.329 0 0 1-.842 1.162c.146-.076.25-.135.334-.189a2.637 2.637 0 0 0 .3-.254 2.091 2.091 0 0 0 .438-.637 2.134 2.134 0 0 0 .184-.777.139.139 0 0 1 .008-.041v-.012a.166.166 0 0 0 .006-.045v-.086l.006-.189.012-.379c.021-1.016.031-2.025.031-3 0-.941-.018-1.848-.039-2.807v-.19l-.021-.379v-.184l-.012-.1v-.1a1.95 1.95 0 0 0-.184-.768 2.1 2.1 0 0 0-1.044-1.063zm-3.082-9.314a2.16 2.16 0 0 0-.918.924 2 2 0 0 0-.215.646.132.132 0 0 0 0 .027.114.114 0 0 0 0 .025l-.006.031a1.188 1.188 0 0 1-.02.09v.172l-.012.336-.043 1.338-.006.416v.137c0 .254-.01.516-.021.771a290.662 290.662 0 0 0-.039 5.328c0 1.623.016 3.367.049 5.33 0 .182.008.365.01.543v.188c0 .205 0 .406.008.609l.043 1.338.012.324v.168c.008.033.014.066.02.1l.01.064v.012a1.936 1.936 0 0 0 .215.643 2.229 2.229 0 0 0 .939.951 2.313 2.313 0 0 1-.486-.443 1.444 1.444 0 0 1-.193-.27.664.664 0 0 1-.082-.141.762.762 0 0 1-.037-.068l-.012-.027-.021-.045a1.976 1.976 0 0 1-.156-.621.41.41 0 0 0-.006-.07v-.018a.515.515 0 0 1-.006-.074v-.162l.021-.334.037-1.328v-.452c0-.289 0-.59.012-.889.049-2.033.053-4.016.053-5.33s0-3.289-.053-5.328c0-.3-.006-.627-.012-.889V17131.642l-.037-1.338-.021-.336v-.162a.479.479 0 0 1 0-.053.12.12 0 0 0 0-.027v-.021a.318.318 0 0 0 .006-.061 1.981 1.981 0 0 1 .156-.615 1.208 1.208 0 0 1 .076-.15.491.491 0 0 0 .018-.033.491.491 0 0 1 .059-.107 2.192 2.192 0 0 1 .658-.686zm10.4.023a2.165 2.165 0 0 0-.936.932 2.461 2.461 0 0 0-.217.648c0 .025-.006.051-.008.078a.114.114 0 0 0 0 .025.456.456 0 0 1-.012.068.631.631 0 0 1 0 .086V17130.004l-.016.334-.033 1.328c0 .223-.01.443-.016.664l-.016.66c-.029 1.572-.043 3.268-.043 5.334s.014 3.75.043 5.314l.01.43.008.287.012.574v.037l.033 1.338.016.336v.172a.8.8 0 0 1 .021.168 2.665 2.665 0 0 0 .217.648 2.291 2.291 0 0 0 .949.939 2.443 2.443 0 0 1-.5-.443 1.847 1.847 0 0 1-.117-.148l-.012-.018c-.021-.029-.043-.059-.066-.088s-.025-.055-.037-.078l-.016-.027a.305.305 0 0 1-.021-.051c-.006-.012-.014-.023-.02-.037l-.008-.014a.431.431 0 0 1-.049-.09 2.378 2.378 0 0 1-.15-.621.7.7 0 0 1-.012-.156v-.156l.012-.336.031-1.338c0-.219.01-.437.016-.656l.006-.223c0-.15.008-.3.012-.449.029-1.732.043-3.471.043-5.314s-.014-3.59-.043-5.334l-.012-.441-.006-.221c0-.109 0-.221-.008-.33s0-.221-.008-.332l-.031-1.328-.012-.334v-.162c0-.027 0-.055.006-.08v-.027a.512.512 0 0 0 0-.055 2.266 2.266 0 0 1 .15-.615.578.578 0 0 1 .029-.061l.01-.016a.905.905 0 0 0 .037-.076.513.513 0 0 1 .047-.086l.006-.01.006-.012.016-.027.01-.012a1.757 1.757 0 0 1 .186-.258 2.3 2.3 0 0 1 .488-.423zm3.8.438a2.164 2.164 0 0 1 .8.938 1.865 1.865 0 0 1 .174.584l.01.074.012.086v.3l-.012.162-.031 1.275v.018c-.006.217-.012.432-.014.648l-.018.613c-.029 1.658-.043 3.33-.043 5.107s.014 3.434.043 5.1l.018.637.006.316c0 .107.006.215.01.322l.031 1.273.012.162v.313l-.012.076-.01.076a1.979 1.979 0 0 1-.174.594 2.232 2.232 0 0 1-.809.934 2.445 2.445 0 0 0 .529-.367 2.544 2.544 0 0 0 .4-.514 2.492 2.492 0 0 0 .227-.615l.012-.086.01-.086a.166.166 0 0 1 .008-.043.038.038 0 0 1 0-.014.066.066 0 0 0 0-.02l.012-.086a.9.9 0 0 1 .01-.162v-.162l.033-1.273c0-.211.01-.426.016-.639l.016-.637c.039-2 .055-3.619.055-5.1s-.016-3.113-.055-5.107l-.018-.662-.006-.314c0-.1-.006-.2-.008-.3l-.033-1.275v-.162a.893.893 0 0 1-.01-.162l-.012-.086a.173.173 0 0 0-.012-.076l-.01-.086-.012-.076a2.232 2.232 0 0 0-.227-.615 2.356 2.356 0 0 0-.4-.518 1.985 1.985 0 0 0-.522-.361zm-10.359 8.41a2.234 2.234 0 0 1 .951 1.848l-.031.744a89.875 89.875 0 0 0-.055 3c0 .943.01 1.953.033 3l.021.756a2.17 2.17 0 0 1-.1.691 2.294 2.294 0 0 1-.842 1.16 2.617 2.617 0 0 0 .334-.184 1.8 1.8 0 0 0 .291-.242 2.15 2.15 0 0 0 .443-.648 2.406 2.406 0 0 0 .2-.777v-.184l.01-.2.012-.377c.031-1 .043-2.012.031-3 0-1.16-.014-2.115-.043-3l-.01-.367-.012-.193v-.1a.413.413 0 0 0-.01-.1 2.173 2.173 0 0 0-1.223-1.836zm5.793-8.41a2.238 2.238 0 0 0-.506.365 2.356 2.356 0 0 0-.4.518 2.315 2.315 0 0 0-.227.615l-.018.076-.016.086v.076l-.012.086a1.113 1.113 0 0 1-.008.162v.162l-.033 1.275c-.008.205-.012.416-.016.617v.021c0 .191-.008.4-.016.641l-.008.469c-.023 1.516-.047 3.082-.047 4.639.016 2.27.031 3.746.055 5.1.008.232.014.447.016.639v.02c0 .2.008.414.016.617l.033 1.273v.162a.9.9 0 0 1 .01.162l.012.086v.076l.018.086.016.086a2.789 2.789 0 0 0 .227.615 2.544 2.544 0 0 0 .4.514 2.618 2.618 0 0 0 .52.367 2.3 2.3 0 0 1-.811-.934 2.231 2.231 0 0 1-.168-.594v-.076l-.016-.076v-.312l.016-.162.027-1.273c0-.117.006-.232.01-.35 0-.1.006-.2.01-.295 0-.211.01-.424.014-.631.039-1.766.043-3.568.043-5.1s0-3.348-.043-5.107a75.717 75.717 0 0 0-.023-.914v-.014c0-.117-.008-.234-.01-.352l-.027-1.275-.016-.162v-.3l.016-.086v-.074a2.082 2.082 0 0 1 .168-.584 2.26 2.26 0 0 1 .79-.936zm-10.379-.027a2.13 2.13 0 0 0-.516.359 2.212 2.212 0 0 0-.383.52 2.272 2.272 0 0 0-.238.615l-.016.086-.012.076a.216.216 0 0 1 0 .037.089.089 0 0 1 0 .016v.033l-.006.086v.162l-.016.162-.027 1.27c-.014.375-.025.779-.037 1.273-.029 1.508-.043 3.133-.043 5.113s.014 3.613.043 5.115c.012.5.023.906.037 1.273l.027 1.285.016.162v.162l.006.076a.12.12 0 0 0 0 .027v.014a.3.3 0 0 1 0 .045l.012.086.016.07a2.389 2.389 0 0 0 .621 1.135 2.349 2.349 0 0 0 .529.377 2.31 2.31 0 0 1-.811-.945 2.246 2.246 0 0 1-.172-.594l-.012-.076V17146.405a.166.166 0 0 1-.008-.045v-.076a.841.841 0 0 1 .01-.15v-.162l.033-1.285c.012-.209.018-.436.021-.736v-.012c0-.174.008-.352.014-.525.027-1.693.039-3.365.039-5.115s-.012-3.461-.039-5.113c-.008-.252-.012-.514-.016-.766v-.508l-.045-1.27v-.162a.494.494 0 0 0 0-.053v-.183a.267.267 0 0 1 0-.037v-.016a.1.1 0 0 0 0-.023v-.076l.012-.076a2.4 2.4 0 0 1 .172-.594 2.25 2.25 0 0 1 .785-.928zm15.746.445a2.738 2.738 0 0 1 .43.4 3.7 3.7 0 0 1 .313.508 2.09 2.09 0 0 1 .15.572.488.488 0 0 1 .01.057v.02a.485.485 0 0 0 .008.064.643.643 0 0 0 .012.15l-.021.3-.033 1.215c0 .184-.006.369-.008.555v.17c0 .162-.006.33-.01.5-.049 1.854-.053 3.674-.053 4.881s0 3.012.053 4.871c0 .162.008.33.01.494v.172c0 .186 0 .371.008.555l.033 1.221.021.291a.677.677 0 0 0-.012.15.8.8 0 0 0-.01.152 2.7 2.7 0 0 1-.162.561 2.305 2.305 0 0 1-.756.912 2.182 2.182 0 0 0 .486-.367 2.152 2.152 0 0 0 .377-.5 2.186 2.186 0 0 0 .217-.594v-.025a.44.44 0 0 0 .018-.121.568.568 0 0 0 .008-.061v-.02a.377.377 0 0 0 .01-.082.651.651 0 0 0 .012-.15v-.15l.043-1.221c0-.184.006-.369.008-.551v-.174c0-.164.006-.334.01-.5.037-1.914.053-3.463.053-4.871s-.018-2.869-.035-4.268l-.008-.58v-.033a19.125 19.125 0 0 1-.021-.711v-.129l-.006-.381-.043-1.215v-.15a.747.747 0 0 0-.012-.162.411.411 0 0 0 0-.049.192.192 0 0 0 0-.033.53.53 0 0 1-.008-.08c0-.014 0-.031-.008-.049s-.006-.031-.01-.047-.006-.035-.01-.057a2.278 2.278 0 0 0-.217-.594 2.755 2.755 0 0 0-.377-.5 2.527 2.527 0 0 0-.474-.342zm-16.541-.035a2.313 2.313 0 0 0-.471.371 1.707 1.707 0 0 0-.367.5 1.786 1.786 0 0 0-.227.584.236.236 0 0 1-.01.035v.006a.518.518 0 0 0-.018.121.767.767 0 0 0-.016.15.747.747 0 0 0-.012.162v.152l-.043 1.23c-.008.219-.012.447-.016.668v.025c0 .174-.008.35-.012.521-.025 1.451-.049 3.145-.049 4.875s.023 3.389.049 4.887c0 .172.008.348.012.523v.021c0 .221.008.451.016.676l.043 1.221v.15a.747.747 0 0 0 .012.162.629.629 0 0 0 .016.152.525.525 0 0 0 .021.135l.006.021a1.857 1.857 0 0 0 .227.594 1.8 1.8 0 0 0 .367.5 2.477 2.477 0 0 0 .48.367 2.188 2.188 0 0 1-.746-.922 1.649 1.649 0 0 1-.156-.562.363.363 0 0 1-.016-.08c0-.023-.008-.043-.012-.061a1.141 1.141 0 0 0 0-.15l.016-.3.033-1.221v-.006c0-.1 0-.205.006-.309v-.129c.008-.254.014-.518.014-.777.037-1.6.055-3.2.055-4.887s-.018-3.277-.055-4.887c0-.246-.006-.5-.014-.748v-.133c0-.111-.006-.223-.008-.334l-.033-1.219-.016-.3v-.141c0-.012 0-.021.006-.031s0-.021 0-.033c.006-.029.01-.057.018-.088a1.568 1.568 0 0 1 .156-.561 2.119 2.119 0 0 1 .309-.508 2.757 2.757 0 0 1 .431-.422zm10.385.033a2.25 2.25 0 0 0-.473.359 2.755 2.755 0 0 0-.377.5 2.478 2.478 0 0 0-.217.594.132.132 0 0 0 0 .027.153.153 0 0 0 0 .027l-.018.1c-.006.032-.006.055-.01.08a.192.192 0 0 0 0 .033.411.411 0 0 0 0 .049.893.893 0 0 0-.01.162l-.006.15-.039 1.215v.66c0 .184-.006.373-.006.561-.041 1.51-.059 3.107-.059 4.881s.018 3.367.059 4.871c0 .182 0 .371.006.553V17144.423l.039 1.221.006.15a.779.779 0 0 0 .01.15c0 .021 0 .045.006.066v.016a.12.12 0 0 0 0 .027.517.517 0 0 1 0 .053c0 .02.008.037.01.055a.183.183 0 0 0 .008.031v.031l.006.029a2.408 2.408 0 0 0 .217.594 2.152 2.152 0 0 0 .377.5 1.908 1.908 0 0 0 .486.367 2.277 2.277 0 0 1-.756-.912 2.747 2.747 0 0 1-.156-.561.668.668 0 0 1-.012-.152.394.394 0 0 0-.006-.064v-.006c0-.027-.008-.055-.008-.08l.016-.291.039-1.221c.01-.254.014-.527.016-.887l.006-.334a225.874 225.874 0 0 0 0-9.752V17133.099c0-.287-.008-.582-.018-.867l-.039-1.215-.016-.3a.487.487 0 0 0 .016-.15c0-.021 0-.049.006-.07s0-.016 0-.023a.409.409 0 0 0 0-.047 2.641 2.641 0 0 1 .156-.572 2.229 2.229 0 0 1 .742-.91zm-4.248 7.547a2.309 2.309 0 0 1 .855 1.154 2.195 2.195 0 0 1 .1.7l-.031.756c-.031.877-.043 1.83-.043 3-.01.85 0 1.8.021 3l.031.744a2.527 2.527 0 0 1-.1.7 2.33 2.33 0 0 1-.844 1.16 1.518 1.518 0 0 0 .324-.184 2.71 2.71 0 0 0 .3-.254 2.34 2.34 0 0 0 .443-.637 2.1 2.1 0 0 0 .184-.771.379.379 0 0 1 0-.047.169.169 0 0 1 0-.02.168.168 0 0 0 0-.031v-.281l.012-.377a90.021 90.021 0 0 0-.012-6.006l-.01-.367v-.2l-.012-.086v-.1a2.335 2.335 0 0 0-.193-.768 2.122 2.122 0 0 0-1.029-1.081zm-.006-7.564a3.267 3.267 0 0 1 .482.539 1.911 1.911 0 0 1 .291.627l.033.074.021.088c.012.049.021.1.031.158v.014c0 .029.008.059.01.088a1.177 1.177 0 0 1 .012.236v.734l.01.367v.281a.033.033 0 0 1 0 .043v.043a1.033 1.033 0 0 1-.021.33c0 .02-.006.039-.01.059l-.014.059a.616.616 0 0 0-.008.049l-.023.082-.021.086a2.268 2.268 0 0 1-.3.615 2.65 2.65 0 0 1-.229.291.055.055 0 0 0-.008.061.058.058 0 0 0 .053.037.04.04 0 0 0 .031-.01.644.644 0 0 0 .094-.061.359.359 0 0 1 .043-.033.206.206 0 0 1 .021-.014.492.492 0 0 0 .076-.064.415.415 0 0 1 .043-.035l.033-.029a2.089 2.089 0 0 0 .453-.637 3.922 3.922 0 0 0 .141-.373c0-.014 0-.027.006-.043a.3.3 0 0 0 .008-.041 1.63 1.63 0 0 0 .039-.316.242.242 0 0 1 .006-.053.124.124 0 0 0 0-.014.148.148 0 0 0 0-.029v-.648l-.012-.367v-.281a.168.168 0 0 0 0-.031v-.016a.48.48 0 0 1 0-.055 3.2 3.2 0 0 0-.064-.395 2.362 2.362 0 0 0-.131-.379 2.068 2.068 0 0 0-.465-.637 2.527 2.527 0 0 0-.3-.238 2 2 0 0 0-.335-.158zm-.766-.432a2.514 2.514 0 0 1 .48.527 2.43 2.43 0 0 1 .3.627l.033.086.01.076a.479.479 0 0 1 .023.109.151.151 0 0 0 0 .029.168.168 0 0 0 .006.033 1.734 1.734 0 0 1 .033.336v1.1l.01.184v.178a2.778 2.778 0 0 1-.021.33 1.7 1.7 0 0 1-.033.172l-.021.082-.031.086a1.905 1.905 0 0 1-.3.621 2 2 0 0 1-.121.162 3.663 3.663 0 0 0-.09.119.062.062 0 0 0-.021.063.068.068 0 0 0 .064.039.029.029 0 0 0 .027-.016.96.96 0 0 0 .162-.107.076.076 0 0 0 .02-.016.2.2 0 0 1 .057-.045.1.1 0 0 1 .02-.021l.008-.006a.267.267 0 0 0 .037-.043 1.848 1.848 0 0 0 .465-.637 2.133 2.133 0 0 0 .129-.367 2.727 2.727 0 0 0 .064-.395v-.2l.012-.189-.012-.367v-.367l-.01-.184v-.193a2.892 2.892 0 0 0-.064-.4 1.544 1.544 0 0 0-.141-.367 2 2 0 0 0-.455-.637 1.888 1.888 0 0 0-.3-.238 1.471 1.471 0 0 0-.344-.16zm-.756-.437a2.7 2.7 0 0 1 .486.533 2.416 2.416 0 0 1 .3.615l.027.086.016.088c0 .014.008.027.01.041v.008c.008.039.018.074.021.113s.008.07.014.105a.905.905 0 0 1 .008.229v.734l.016.367.006.184v.184a1.576 1.576 0 0 1-.033.334c0 .016 0 .033-.006.051v.021a.4.4 0 0 1-.021.09l-.021.082-.021.08a2.282 2.282 0 0 1-.3.627 1.7 1.7 0 0 1-.227.281.067.067 0 0 0-.008.068.061.061 0 0 0 .051.033.036.036 0 0 0 .014 0h.006a.057.057 0 0 1 .018 0h.012a1.022 1.022 0 0 0 .145-.119.194.194 0 0 0 .082-.055l.07-.059a2.226 2.226 0 0 0 .453-.637 2.013 2.013 0 0 0 .109-.283l.025-.078.006-.018a2.2 2.2 0 0 0 .064-.4v-1.113l-.01-.193v-.088a.148.148 0 0 0 0-.029v-.02a.384.384 0 0 1-.006-.047 1.823 1.823 0 0 0-.064-.4 2.379 2.379 0 0 0-.129-.379 2.262 2.262 0 0 0-.455-.637 1.53 1.53 0 0 0-.312-.236 1.486 1.486 0 0 0-.35-.159zm-.766-.441a2.492 2.492 0 0 1 .49.537 2.292 2.292 0 0 1 .293.621l.031.076.027.086a1.479 1.479 0 0 0 .027.162 2.46 2.46 0 0 1 .027.346v.723l.006.367v.367a1.648 1.648 0 0 1-.014.309v.021c-.014.047-.023.1-.031.137l-.006.031-.02.086-.023.086a2.366 2.366 0 0 1-.3.621 3.409 3.409 0 0 1-.227.281.058.058 0 0 0-.014.063.063.063 0 0 0 .057.039c.016 0 .027 0 .033-.016.023-.014.049-.027.082-.049l.021-.016a.405.405 0 0 1 .063-.037l.008-.008a.09.09 0 0 1 .014-.014.267.267 0 0 1 .049-.045l.037-.029.012-.012a.856.856 0 0 0 .033-.029 2.032 2.032 0 0 0 .453-.637 2.976 2.976 0 0 0 .129-.373l.014-.057v-.008a1.528 1.528 0 0 0 .047-.328.516.516 0 0 1 0-.057v-.016a.168.168 0 0 0 0-.031v-.648l-.01-.367v-.184l-.012-.1v-.1a2.326 2.326 0 0 0-.064-.4 1.817 1.817 0 0 0-.125-.377 2.253 2.253 0 0 0-.469-.633 2.163 2.163 0 0 0-.3-.227 1.362 1.362 0 0 0-.341-.158zm-.756-.437a2.429 2.429 0 0 1 .48.537 2.244 2.244 0 0 1 .307.621l.018.086.027.07a.8.8 0 0 1 .016.088.417.417 0 0 0 .016.086l.006.051a2.394 2.394 0 0 1 .021.283v1.1l.016.184v.184a2.371 2.371 0 0 1-.031.324c0 .023-.008.049-.01.072a.489.489 0 0 1-.018.1l-.018.08-.037.086a2.425 2.425 0 0 1-.3.627l-.035.049a2.714 2.714 0 0 1-.18.232.061.061 0 0 0-.02.064.063.063 0 0 0 .051.033.065.065 0 0 0 .043-.012.753.753 0 0 0 .152-.113.285.285 0 0 0 .051-.037.234.234 0 0 1 .023-.021.239.239 0 0 0 .053-.039.16.16 0 0 0 .018-.016 2.078 2.078 0 0 0 .465-.648 2.133 2.133 0 0 0 .129-.367 2.31 2.31 0 0 0 .066-.365v-.012l.006-.021v-1.125l-.016-.184v-.2a2.557 2.557 0 0 0-.059-.389 3.015 3.015 0 0 0-.141-.377 2.122 2.122 0 0 0-.453-.639 1.954 1.954 0 0 0-.309-.236 2.383 2.383 0 0 0-.34-.16z" transform="translate(-21484.143 -17123.139)" style="fill:#ac9f8c"/>
                </g>
            </g>
        </g>
    </g>
</svg>
