<svg width="34" height="28" viewBox="0 0 34 28" fill="none" xmlns="http://www.w3.org/2000/svg">
<mask id="mask0_843_4" style="mask-type:luminance" maskUnits="userSpaceOnUse" x="0" y="11" width="8" height="6">
<path d="M5.56277 16.0708C5.7082 16.0625 5.85033 16.0241 5.98013 15.958C6.10993 15.8919 6.22456 15.7995 6.31677 15.6868L7.42175 14.1688C7.4976 14.0551 7.53809 13.9214 7.53809 13.7848C7.53809 13.6481 7.4976 13.5145 7.42175 13.4008L6.31677 11.8828C6.22456 11.77 6.10993 11.6776 5.98013 11.6115C5.85033 11.5454 5.7082 11.507 5.56277 11.4988H0.270752C0.0997519 11.4988 0.00175586 11.5738 -0.000244141 11.6858V11.6938C0.0051664 11.7633 0.0316993 11.8296 0.0757751 11.8838L1.17578 13.4018C1.25063 13.5158 1.2905 13.6493 1.2905 13.7858C1.2905 13.9222 1.25063 14.0557 1.17578 14.1698L0.0757751 15.6878C0.0316993 15.7419 0.0051664 15.8082 -0.000244141 15.8778V15.8858C-0.000244141 15.9978 0.0997519 16.0728 0.270752 16.0728L5.56277 16.0708Z" fill="white"/>
</mask>
<g mask="url(#mask0_843_4)">
<path d="M7.53809 16.0708H8.58307e-05L8.58307e-05 11.4978H7.53809L7.53809 16.0708Z" fill="#AC9F8C"/>
</g>
<mask id="mask1_843_4" style="mask-type:luminance" maskUnits="userSpaceOnUse" x="0" y="11" width="8" height="3">
<path d="M7.53793 13.7842C7.54092 13.6471 7.50028 13.5126 7.4219 13.4002L6.31692 11.8822C6.22472 11.7694 6.11008 11.677 5.98028 11.6109C5.85048 11.5448 5.70835 11.5064 5.56293 11.4982H0.270903C0.0999031 11.4982 0.00190702 11.5732 -9.29832e-05 11.6852V11.6932C0.00531756 11.7628 0.0318504 11.829 0.0759263 11.8832L1.17593 13.4012C1.25327 13.5141 1.29346 13.6483 1.29092 13.7852L7.53793 13.7842Z" fill="white"/>
</mask>
<g mask="url(#mask1_843_4)">
<path d="M7.53809 13.7842L8.58307e-05 13.7842V11.4972H7.53809V13.7842Z" fill="#AC9F8C"/>
</g>
<mask id="mask2_843_4" style="mask-type:luminance" maskUnits="userSpaceOnUse" x="0" y="0" width="34" height="28">
<path d="M33.7002 27.5679L0.001194 27.5679V0.000871658L33.7002 0.000871658V27.5679Z" fill="white"/>
</mask>
<g mask="url(#mask2_843_4)">
<path d="M19.9159 0.000986099C22.5053 0.00184056 25.042 0.732191 27.2354 2.10834C29.4288 3.48448 31.1902 5.45075 32.3176 7.7818C33.445 10.1128 33.8928 12.7144 33.6098 15.2882C33.3268 17.8621 32.3244 20.3041 30.7174 22.3345C29.1104 24.3649 26.964 25.9015 24.5239 26.7681C22.0839 27.6348 19.4491 27.7965 16.9214 27.2347C14.3937 26.6729 12.0754 25.4104 10.2323 23.5917C8.38907 21.7731 7.09555 19.4719 6.49992 16.952C6.46284 16.7427 6.50716 16.5272 6.62379 16.3495C6.74043 16.1719 6.92056 16.0455 7.12732 15.9963C7.33408 15.9471 7.55182 15.9788 7.73598 16.0849C7.92013 16.191 8.05677 16.3634 8.11792 16.567C8.80099 19.4587 10.5226 21.9987 12.9556 23.7044C15.3886 25.41 18.3634 26.1624 21.3148 25.8186C24.2661 25.4747 26.9883 24.0586 28.964 21.8393C30.9398 19.6201 32.0313 16.7523 32.0313 13.781C32.0313 10.8097 30.9398 7.9419 28.964 5.72263C26.9883 3.50336 24.2661 2.08725 21.3148 1.7434C18.3634 1.39956 15.3886 2.15195 12.9556 3.85759C10.5226 5.56323 8.80099 8.10325 8.11792 10.995C8.09582 11.1044 8.05197 11.2082 7.98896 11.3003C7.92595 11.3924 7.84508 11.4709 7.75114 11.5312C7.6572 11.5914 7.55212 11.6322 7.44212 11.6511C7.33213 11.6699 7.21946 11.6665 7.11082 11.6409C7.00219 11.6154 6.89978 11.5683 6.8097 11.5024C6.71962 11.4365 6.64369 11.3532 6.58643 11.2574C6.52917 11.1617 6.49174 11.0553 6.47636 10.9448C6.46099 10.8343 6.46798 10.7218 6.49692 10.614C7.21241 7.59267 8.9265 4.90119 11.3618 2.97514C13.7971 1.04909 16.811 0.00117431 19.9159 0.000986099Z" fill="#AC9F8C"/>
<path d="M19.9158 4.52291C21.6051 4.52381 23.262 4.98676 24.7071 5.86164C26.1522 6.73653 27.3305 7.99002 28.1144 9.48644C28.8983 10.9829 29.258 12.6652 29.1545 14.3513C29.051 16.0375 28.4882 17.6632 27.5272 19.0525C26.5661 20.4418 25.2434 21.5418 23.7021 22.2333C22.1608 22.9249 20.4598 23.1817 18.783 22.976C17.1063 22.7703 15.5178 22.1098 14.1894 21.0661C12.861 20.0225 11.8434 18.6354 11.2468 17.0549C11.1763 16.85 11.1885 16.6258 11.2806 16.4297C11.3728 16.2337 11.5377 16.0812 11.7404 16.0047C11.9431 15.9282 12.1676 15.9337 12.3663 16.02C12.565 16.1063 12.7223 16.2666 12.8048 16.4669C13.4327 18.1316 14.6248 19.5231 16.1734 20.3992C17.7219 21.2753 19.5287 21.5803 21.279 21.2611C23.0293 20.942 24.6121 20.0188 25.7518 18.6526C26.8914 17.2864 27.5156 15.5636 27.5156 13.7844C27.5156 12.0053 26.8914 10.2825 25.7518 8.91623C24.6121 7.54999 23.0293 6.62687 21.279 6.3077C19.5287 5.98854 17.7219 6.29356 16.1734 7.16962C14.6248 8.04569 13.4327 9.43727 12.8048 11.1019C12.7223 11.3022 12.565 11.4626 12.3663 11.5488C12.1676 11.6351 11.9431 11.6406 11.7404 11.5641C11.5377 11.4876 11.3728 11.3352 11.2806 11.1391C11.1885 10.943 11.1763 10.7188 11.2468 10.5139C11.9176 8.7566 13.1049 7.24363 14.6523 6.17422C16.1998 5.10482 18.0348 4.52911 19.9158 4.52291Z" fill="#AC9F8C"/>
<path d="M19.9173 8.99983C20.6908 8.99922 21.4529 9.18612 22.1383 9.54452C22.8237 9.90292 23.412 10.4221 23.8528 11.0577C24.2937 11.6932 24.5738 12.4261 24.6694 13.1937C24.765 13.9612 24.673 14.7405 24.4015 15.4647C24.1299 16.1889 23.6869 16.8366 23.1103 17.3521C22.5336 17.8676 21.8406 18.2356 21.0906 18.4247C20.3406 18.6137 19.556 18.6182 18.8039 18.4376C18.0518 18.257 17.3547 17.8968 16.7723 17.3878C16.606 17.242 16.5045 17.036 16.49 16.8153C16.4756 16.5945 16.5494 16.3771 16.6953 16.2108C16.8412 16.0445 17.0471 15.943 17.2679 15.9286C17.4886 15.9141 17.706 15.988 17.8723 16.1338C18.3236 16.5279 18.8788 16.7838 19.4716 16.8708C20.0644 16.9578 20.6697 16.8722 21.2152 16.6244C21.7607 16.3765 22.2233 15.9769 22.5477 15.4732C22.8721 14.9694 23.0446 14.383 23.0446 13.7838C23.0446 13.1847 22.8721 12.5982 22.5477 12.0945C22.2233 11.5908 21.7607 11.1911 21.2152 10.9433C20.6697 10.6954 20.0644 10.6099 19.4716 10.6969C18.8788 10.7839 18.3236 11.0397 17.8723 11.4338C17.79 11.5061 17.6943 11.5614 17.5907 11.5966C17.487 11.6319 17.3775 11.6463 17.2682 11.6392C17.159 11.6321 17.0522 11.6036 16.954 11.5552C16.8558 11.5068 16.768 11.4396 16.6958 11.3573C16.6236 11.2751 16.5683 11.1794 16.533 11.0757C16.4978 10.9721 16.4833 10.8625 16.4904 10.7532C16.4975 10.644 16.526 10.5372 16.5744 10.439C16.6228 10.3408 16.69 10.2531 16.7723 10.1808C17.643 9.41908 18.7605 9.0001 19.9173 8.99983Z" fill="#AC9F8C"/>
<path d="M1.70871 12.9522L19.9087 12.9522C20.1295 12.9522 20.3413 13.0399 20.4974 13.196C20.6535 13.3522 20.7412 13.5639 20.7412 13.7847C20.7412 14.0055 20.6535 14.2172 20.4974 14.3734C20.3413 14.5295 20.1295 14.6172 19.9087 14.6172L1.70871 14.6172C1.48792 14.6172 1.27616 14.5295 1.12004 14.3734C0.963917 14.2172 0.876205 14.0055 0.876205 13.7847C0.876205 13.5639 0.963917 13.3522 1.12004 13.196C1.27616 13.0399 1.48792 12.9522 1.70871 12.9522Z" fill="#AC9F8C"/>
</g>
</svg>
